<?xml version="1.0" standalone="no"?>
<svg viewBox="0 0 200 200" xmlns="http://www.w3.org/2000/svg">
  <path fill="#11A0FF" d="M42.6,-65.4C57.1,-56.9,72.1,-48.4,76.9,-35.8C81.6,-23.2,76,-6.5,70.1,7.6C64.2,21.6,57.9,33.2,50.6,46.7C43.3,60.2,35,75.7,21.8,84C8.6,92.3,-9.6,93.4,-25.8,88.4C-42,83.4,-56.3,72.3,-67.8,58.8C-79.2,45.4,-87.8,29.6,-89.4,13.3C-91,-3,-85.7,-19.9,-75.3,-31C-65,-42.2,-49.5,-47.6,-36.2,-56.6C-22.8,-65.6,-11.4,-78.1,1.3,-80.1C14,-82.2,28.1,-73.9,42.6,-65.4Z" transform="translate(100 100)" />
</svg>
